# xmcd
#
# Track frame offsets:
#	150
#	18747
#	39501
#	49373
#	63540
#	89447
#	101913
#	126757
#	147875
#	166967
#	189371
#
# Disc length: 2710 seconds
#
# Revision: 0
# Processed by: cddbd v1.5.2PL0 Copyright (c) Steve Scherf et al.
# Submitted via: EasyCDDAExtractor 16.0.6.1
#
DISCID=9d0a940b
DTITLE=Συλλογικός δίσκος - Λυταία Πύλη-Χρυσ. Σταμούλης
DYEAR=1998
DGENRE=Έντεχνη
TTITLE0=Γαϊτάνος Πέτρος-Παιδική Χορωδία - Με μιά αγκαλιά τραγούδια [Χρυσ. Σταμ
TTITLE0=ούλη]
TTITLE1=Χατζημανώλης Μανώλης - Με μιά κλωστή δένω τη γη [Βαγγ. Βαρβαρέσου]
TTITLE2=Χατζημανώλης Μανώλης-Παιδική Χορωδία - Μαρτυρίες [Παν. Λάϊου]
TTITLE3=Γαϊτάνος Πέτρος-Χορωδία Νέων - Θεσσαλονίκη ονείρου χάριν [Βαγγ. Βαρβαρ
TTITLE3=έσου]
TTITLE4=Παπαζήσης Μιχάλης-Χορωδία Νέων - Όσκαρ Ρομέρο [Βενιζέλου Χριστοφορίδη]
TTITLE5=Χατζημανώλης Μανώλης-Χορωδία Νέων - Λιταία Πύλη [Μαριλένας Φισκέττι]
TTITLE6=Παπαζήσης Μιχάλης-Χορωδία Νέων - Πέμπτο Ευαγγέλιο [Άγγ. Σικελιανού]
TTITLE7=Παπαζήσης Μιχάλης-Χορωδία Νέων - Προσφιλής μου πατρίδα [ΝΓΠεντζίκη ''Ο
TTITLE7=πεθαμένος και η ανάσταση]
TTITLE8=Χατζημανώλης Μανώλης-Χορωδία Νέων - Ουρανός [ΝΓΠεντζίκη ''Ο πεθαμένος 
TTITLE8=και η ανάσταση]
TTITLE9=Παπαζήσης Μιχάλης - Οδοιπόρος [ΝΓΠεντζίκη ''Ο πεθαμένος και η ανάσταση
TTITLE9=]
TTITLE10=Παιδική Χορωδία - Χρώματα [ΝΓΠεντζίκη ''Ο πεθαμένος κ η ανάσταση, απα
TTITLE10=γγ. ΧΣταμούλη]
EXTD=
EXTT0=
EXTT1=
EXTT2=
EXTT3=
EXTT4=
EXTT5=
EXTT6=
EXTT7=
EXTT8=
EXTT9=
EXTT10=
PLAYORDER=
